# Blender v2.69 (sub 0) OBJ File: ''
# www.blender.org
mtllib ironWall.mtl
o Cube_Cube.001
v 1.000000 -1.000000 0.009999
v -1.000000 -1.000000 0.010001
v -1.000000 -1.000000 -0.009999
v 1.000000 -1.000000 -0.010001
v 1.000000 1.000000 0.009999
v -1.000000 1.000000 0.010001
v -1.000000 1.000000 -0.009999
v 1.000000 1.000000 -0.010001
v 1.000000 -1.000000 0.009999
v -1.000000 -1.000000 0.010001
v -1.000000 -1.000000 -0.009999
v 1.000000 -1.000000 -0.010001
v 1.000000 1.000000 0.009999
v -1.000000 1.000000 0.010001
v -1.000000 1.000000 -0.009999
v 1.000000 1.000000 -0.010001
vt 0.000000 0.000000
vt 0.000000 1.000000
vt 1.000000 0.000000
vt 1.000000 1.000000
vn -0.000001 0.000000 -1.000000
vn 1.000000 0.000000 0.000000
vn 0.000001 0.000000 1.000000
vn -1.000000 0.000000 0.000000
vn 0.000000 1.000000 0.000000
vn 0.000000 -1.000000 0.000000
usemtl Material.001
s off
f 5/1/1 1/2/1 6/3/1
f 6/1/2 2/2/2 7/3/2
f 7/1/3 3/2/3 8/3/3
f 8/1/4 4/2/4 5/3/4
f 1/1/5 4/2/5 2/3/5
f 8/1/6 5/2/6 7/3/6
f 13/1/3 14/3/3 9/2/3
f 14/1/4 15/3/4 10/2/4
f 15/1/1 16/3/1 11/2/1
f 16/1/2 13/3/2 12/2/2
f 9/1/6 10/3/6 12/2/6
f 16/1/5 15/3/5 13/2/5
f 1/2/1 2/4/1 6/3/1
f 2/2/2 3/4/2 7/3/2
f 3/2/3 4/4/3 8/3/3
f 4/2/4 1/4/4 5/3/4
f 4/2/5 3/4/5 2/3/5
f 5/2/6 6/4/6 7/3/6
f 14/3/3 10/4/3 9/2/3
f 15/3/4 11/4/4 10/2/4
f 16/3/1 12/4/1 11/2/1
f 13/3/2 9/4/2 12/2/2
f 10/3/6 11/4/6 12/2/6
f 15/3/5 14/4/5 13/2/5
