# Blender v2.69 (sub 0) OBJ File: ''
# www.blender.org
mtllib plane.mtl
o Plane
v 1.000000 -0.998498 -0.045621
v -1.000000 -0.998498 -0.045621
v 1.000000 0.998498 0.063940
v -1.000000 0.998498 0.063940
v 1.000000 -0.998498 -0.045621
v -1.000000 -0.998498 -0.045621
v 1.000000 0.998498 0.063940
v -1.000000 0.998498 0.063940
vt 0.000000 0.000000
vt 1.000000 0.000000
vt 0.000000 1.000000
vt 1.000000 1.000000
vn 0.000000 0.054780 -0.998498
vn -0.000000 -0.054780 0.998498
vn 0.000000 0.000000 1.000000
usemtl Material.001
s off
f 2/1/1 4/2/1 1/3/1
f 6/1/2 5/2/2 8/3/2
f 1/1/3 3/2/3 5/3/3
f 4/1/3 2/2/3 8/3/3
f 3/1/3 4/2/3 7/3/3
f 2/1/3 1/2/3 6/3/3
f 4/2/1 3/4/1 1/3/1
f 5/2/2 7/4/2 8/3/2
f 3/2/3 7/4/3 5/3/3
f 2/2/3 6/4/3 8/3/3
f 4/2/3 8/4/3 7/3/3
f 1/2/3 5/4/3 6/3/3
